<?xml version="1.0" encoding="UTF-8" standalone="no"?>
<!DOCTYPE svg PUBLIC "-//W3C//DTD SVG 1.1//EN" "http://www.w3.org/Graphics/SVG/1.1/DTD/svg11.dtd">
<svg width="100%" height="100%" viewBox="0 0 800 800" version="1.1" xmlns="http://www.w3.org/2000/svg" xmlns:xlink="http://www.w3.org/1999/xlink" xml:space="preserve" xmlns:serif="http://www.serif.com/" style="fill-rule:evenodd;clip-rule:evenodd;stroke-linejoin:round;stroke-miterlimit:2;">
    <path d="M750,181.1L750,606.7L575,750L488.187,718.395L489.981,575.072L597.75,583.5L597.75,336.798L720.75,185.25L750,181.1ZM521.8,152.5L349.7,50L349.7,150.05L119.1,217.8L50,306.5L50,417.306L212.485,438.737L148.9,293.45L549.828,211.2L572.8,182.55L521.8,152.5Z" style="fill:rgb(18,127,218);fill-rule:nonzero;"/>
    <g>
        <g transform="matrix(0.783391,0.62153,-0.594765,0.749656,489.738,-302.443)">
            <path d="M452,235.693C452,220.409 440.126,208 425.5,208C410.874,208 399,220.409 399,235.693L399,595.307C399,610.591 410.874,623 425.5,623C440.126,623 452,610.591 452,595.307L452,235.693Z" style="fill:rgb(127,183,111);"/>
        </g>
        <g transform="matrix(0.807698,0.589596,-0.589596,0.807698,364.017,-165.941)">
            <path d="M480,459.5C480,449.29 471.71,441 461.5,441L372.5,441C362.29,441 354,449.29 354,459.5L354,496.5C354,506.71 362.29,515 372.5,515L461.5,515C471.71,515 480,506.71 480,496.5L480,459.5Z" style="fill:rgb(127,183,111);"/>
        </g>
        <path d="M364,461C364,461 270.096,513.417 96,471C96,471 32.46,448.828 71,509C71,509 86.492,550.633 127,547C127,547 175.741,554.485 196,547C196,547 121.512,562.727 134,591C146.488,619.273 151.733,623.108 207,609C207,609 161.555,650.632 204,652C204,652 262.329,644.838 303,604C303,604 271.518,654.321 228,675L273,704L295,688C295,688 301.171,710.312 296,719L325,728C325,728 356.146,704.871 382,626C382,626 389.332,682.433 351,741C351,741 415.705,774.693 420,735C420,735 455.724,619.007 432,522C408.276,424.993 388,466 388,466L364,461Z" style="fill:rgb(127,183,111);"/>
    </g>
</svg>
